# xmcd
#
# Track frame offsets: 
#        150
#        10905
#        24645
#        34955
#        52207
#        65600
#        77370
#        89495
#        102092
#        114940
#        126155
#        137872
#
# Disc length: 2007 seconds
#
# Revision: 2
# Processed by: cddbd v1.5.2PL0 Copyright (c) Steve Scherf et al.
# Submitted via: ExactAudioCopy v1.0b3
#
DISCID=9f07d50c
DTITLE=Sugar Pie DeSanto - Down In The Basement
DYEAR=1989
DGENRE=R&B
TTITLE0=In The Basement, Part One (with Etta James)
TTITLE1=I Want To Know
TTITLE2=Mama Didn't Raise No Fool
TTITLE3=Maybe You'll Be There
TTITLE4=Do I Make Myself Clear (with Etta James)
TTITLE5=Ask Me
TTITLE6=Use What You Got
TTITLE7=Can't Let You Go
TTITLE8=Soulful Dress
TTITLE9=Going Back To Where I Belong
TTITLE10=She's Got Everything
TTITLE11=Slip-In Mules
EXTD=
EXTT0=
EXTT1=
EXTT2=
EXTT3=
EXTT4=
EXTT5=
EXTT6=
EXTT7=
EXTT8=
EXTT9=
EXTT10=
EXTT11=
PLAYORDER=
